<?xml version="1.0" encoding="utf-8"?>
<svg xmlns="http://www.w3.org/2000/svg" viewBox="455.2283 47.2923 80.201 167.2897" width="80.201px" height="167.29px" preserveAspectRatio="none"><path d="m 0,0 c 3.785,2.471 5.052,-1.251 5.73,-3.349 0.699,-2.16 0.952,-4.456 1.475,-6.66 1.733,-7.305 7.102,-8.579 12.016,-13.243 4.583,-4.348 7.093,-11.868 5.255,-18.023 -0.415,-1.391 1.755,-1.985 2.17,-0.599 1.951,6.535 -0.608,15.217 -5.792,20.204 3.612,-1.705 7.025,-3.973 10.164,-6.271 1.17,-0.856 2.293,1.095 1.135,1.942 -4.716,3.453 -10.032,6.798 -15.723,8.4 -0.121,0.286 -0.35,0.543 -0.72,0.726 -0.088,0.043 -0.167,0.092 -0.253,0.137 -0.643,4.423 -1.095,9.194 0.115,13.549 1.261,4.537 5.79,10.755 11.083,11.108 4.578,0.305 8.217,-3.479 5.76,-7.773 -0.968,-1.69 -2.827,-2.943 -3.996,-4.537 -2.377,-3.243 -3.498,-6.959 -3.772,-10.943 -0.122,-1.769 2.171,-1.989 3.028,-0.82 3.429,4.675 8.429,9.005 14.194,10.407 8.917,2.168 12.145,-7.179 5.625,-12.02 -4.116,-3.056 -12.168,-5.58 -13.14,-11.403 -0.884,-5.293 4.475,-6.781 8.333,-8.304 1.624,-0.641 3.697,-1.327 4.596,-2.961 2.402,-4.365 -2.49,-7.598 -5.923,-8.531 -4.972,-1.353 -9.83,-3.094 -14.818,-4.387 -1.009,-0.261 -1.506,-1.496 -0.972,-2.387 1.929,-3.215 0.471,-7.68 -2.84,-9.42 -4.135,-2.172 -9.353,1.463 -12.763,3.411 -2.328,1.33 -5.231,2.502 -7.139,4.414 -3.835,3.843 -1.678,7.514 2.397,8.477 1.495,-2.054 3.131,-3.866 5.684,-4.894 1.343,-0.542 1.926,1.634 0.598,2.169 -2.341,0.944 -3.749,2.9 -5.094,4.898 -2.476,6.141 -3.953,12.51 -5.095,19.019 -1.199,6.841 -3.454,14.569 -3.251,21.509 C -1.887,-4.593 -1.62,-1.058 0,0 m 2.781,-46.207 c -3.337,-1.294 -5.685,-4.083 -5.312,-8.14 0.395,-4.289 4.591,-6.967 8.491,-9.036 -1.033,-5.234 -1.356,-10.651 -1.385,-15.771 -0.062,-10.854 1.235,-22.32 5.269,-32.466 1.762,-4.432 9.019,-2.5 7.232,1.994 -3.648,9.176 -4.921,19.274 -4.999,29.095 -0.035,4.383 0.126,9.01 0.836,13.522 4.149,-1.952 8.825,-3.147 12.745,-0.071 3.399,2.667 4.876,7.15 3.571,11.108 3.053,0.88 6.049,1.922 9.101,2.823 2.468,0.729 5.184,1.082 7.489,2.272 3.881,2.003 6.304,6.558 4.797,10.892 -1.171,3.365 -4.467,4.642 -7.523,5.816 -1.92,0.736 -5.265,1.319 -5.594,3.854 -0.358,2.764 4.18,5.062 5.977,6.189 6.174,3.873 16.169,10.627 8.666,18.739 -6.495,7.021 -16.173,1.951 -22.63,-4.005 1.171,2.282 2.862,4.227 4.761,6.592 1.496,1.862 2.406,4.15 2.197,6.57 -0.406,4.697 -4.639,7.997 -9.268,7.525 C 14.411,9.992 11.388,-2.674 11.929,-13.413 9.301,-8.99 10.35,-2.638 6.854,1.739 3.969,5.353 -0.604,4.802 -3.214,1.167 c -4.114,-5.731 -1.142,-14.45 -0.092,-20.675 1.53,-9.053 2.843,-18.087 6.087,-26.699" style="fill:#231f20;fill-opacity:1;fill-rule:nonzero;stroke:none" id="path50" transform="matrix(1.3333332538604736, 0, 0, -1.3333332538604736, 462.33330577611923, 62.412206426532094)"/></svg>