<?xml version="1.0" encoding="utf-8"?>
<svg xmlns="http://www.w3.org/2000/svg" viewBox="552.2401 50.2608 59.3735 166.1799" width="59.3735px" height="166.18px" preserveAspectRatio="none"><g id="g44" transform="matrix(1.3333332538604736, 0, 0, -1.3333332538604736, 566.2526517955848, 121.63087151661603)"><path d="m 0,0 c -0.682,-1.785 -1.139,-3.728 -1.299,-5.841 -0.327,-4.339 0.974,-9.225 5.125,-11.365 2.039,-1.051 4.097,-1.105 5.94,-0.404 -0.207,-4.372 1.66,-9.009 6.584,-8.916 2.088,0.039 2.095,3.289 0,3.25 -4.2,-0.079 -3.801,6.438 -2.636,8.762 0.773,1.542 -1.321,3.487 -2.552,1.969 -2.87,-3.538 -7.073,-2.318 -8.658,1.74 -1.408,3.606 -0.329,8.02 1.356,11.353 3.492,6.905 10.197,9.291 17.529,9.055 2.091,-0.067 2.089,3.183 0,3.25 C 13.503,13.107 6.19,9.939 2.08,3.994 1.811,8.32 3.488,15.331 4.062,16.334 c 3.117,5.46 11.29,9.278 17.285,6.811 1.932,-0.795 2.774,2.348 0.864,3.134 -1.674,0.689 -3.446,0.972 -5.234,0.948 -2.516,3.239 -6.541,4.373 -9.395,7.9 -1.982,2.451 -3.393,5.621 -3.766,8.748 -0.208,1.747 -0.221,4.287 1.297,5.516 2.096,1.695 5.825,0.063 7.874,-0.931 16.338,-7.92 19.906,-29.678 16.951,-45.799 -0.767,-4.187 -1.973,-8.378 -3.302,-12.418 -1.008,-3.063 -2.887,-5.933 -3.725,-9.025 -0.501,-1.849 -0.352,-2.963 0.724,-4.566 0.669,-0.996 1.695,-1.661 2.439,-2.572 2.564,-3.137 1.903,-5.765 -1.267,-7.776 -3.498,-2.219 -8.063,-2.956 -12.127,-2.918 -3.8,0.037 -14.28,0.945 -13.617,6.251 0.471,3.782 7.232,4.032 5.123,8.17 -2.448,4.801 -8.776,5.523 -10.701,11.199 -2.073,6.113 -0.306,14.44 5.31,18.019 C -1.244,4.425 -0.928,1.843 0,0 m -3.458,-19.937 c 1.18,-0.875 3.721,-2.019 4.354,-3.361 -0.062,-0.056 -0.125,-0.115 -0.199,-0.19 -0.352,-0.361 -1.098,-0.732 -1.525,-1.084 -2.153,-1.779 -4.051,-4.835 -3.618,-7.75 0.912,-6.142 10.221,-7.587 17.033,-7.531 0.907,-8.911 0.248,-17.916 -2.119,-26.606 -1.271,-4.664 5.963,-6.653 7.231,-1.995 2.624,9.633 3.287,19.571 2.288,29.425 5.603,1.392 12.986,5.083 10.965,11.64 -1.136,3.688 -5.701,4.803 -4.432,8.994 0.446,1.476 1.454,2.851 2.047,4.286 1.402,3.392 2.353,7.081 3.279,10.628 4.815,18.447 2.532,43.794 -16.03,54.124 -3.245,1.806 -8.3,4.217 -11.868,1.988 -2.626,-1.64 -3.567,-4.924 -3.496,-7.84 0.1,-4.079 1.975,-8.32 4.441,-11.51 2.205,-2.85 5.812,-4.212 8.302,-6.571 C 7.557,25.269 2.354,20.993 0.276,15.884 -0.183,14.755 -0.633,12.917 -0.916,10.826 -12.896,5.529 -13.555,-12.452 -3.458,-19.937" style="fill:#231f20;fill-opacity:1;fill-rule:nonzero;stroke:none" id="path46"/></g></svg>